P3
16 16
255
127 127 127 135 127 127 143 127 127 151 127 127 159 127 127 167 127 127 175 127 127 183 127 127 191 127 127 199 127 127 207 127 127 215 127 127 223 127 127 231 127 127 239 127 127 247 127 127 127 
135 127 135 135 127 143 135 127 151 135 127 159 135 127 167 135 127 175 135 127 183 135 127 191 135 127 199 135 127 207 135 127 215 135 127 223 135 127 231 135 127 239 135 127 247 135 127 127 
143 127 135 143 127 143 143 127 151 143 127 159 143 127 167 143 127 175 143 127 183 143 127 191 143 127 199 143 127 207 143 127 215 143 127 223 143 127 231 143 127 239 143 127 247 143 127 127 
151 127 135 151 127 143 151 127 151 151 127 159 151 127 167 151 127 175 151 127 183 151 127 191 151 127 199 151 127 207 151 127 215 151 127 223 151 127 231 151 127 239 151 127 247 151 127 127 
159 127 135 159 127 143 159 127 151 159 127 159 159 127 167 159 127 175 159 127 183 159 127 191 159 127 199 159 127 207 159 127 215 159 127 223 159 127 231 159 127 239 159 127 247 159 127 127 
167 127 135 167 127 143 167 127 151 167 127 159 167 127 167 167 127 175 167 127 183 167 127 191 167 127 199 167 127 207 167 127 215 167 127 223 167 127 231 167 127 239 167 127 247 167 127 127 
175 127 135 175 127 143 175 127 151 175 127 159 175 127 167 175 127 175 175 127 183 175 127 191 175 127 199 175 127 207 175 127 215 175 127 223 175 127 231 175 127 239 175 127 247 175 127 127 
183 127 135 183 127 143 183 127 151 183 127 159 183 127 167 183 127 175 183 127 183 183 127 191 183 127 199 183 127 207 183 127 215 183 127 223 183 127 231 183 127 239 183 127 247 183 127 127 
191 127 135 191 127 143 191 127 151 191 127 159 191 127 167 191 127 175 191 127 183 191 127 191 191 127 199 191 127 207 191 127 215 191 127 223 191 127 231 191 127 239 191 127 247 191 127 127 
199 127 135 199 127 143 199 127 151 199 127 159 199 127 167 199 127 175 199 127 183 199 127 191 199 127 199 199 127 207 199 127 215 199 127 223 199 127 231 199 127 239 199 127 247 199 127 127 
207 127 135 207 127 143 207 127 151 207 127 159 207 127 167 207 127 175 207 127 183 207 127 191 207 127 199 207 127 207 207 127 215 207 127 223 207 127 231 207 127 239 207 127 247 207 127 127 
215 127 135 215 127 143 215 127 151 215 127 159 215 127 167 215 127 175 215 127 183 215 127 191 215 127 199 215 127 207 215 127 215 215 127 223 215 127 231 215 127 239 215 127 247 215 127 127 
223 127 135 223 127 143 223 127 151 223 127 159 223 127 167 223 127 175 223 127 183 223 127 191 223 127 199 223 127 207 223 127 215 223 127 223 223 127 231 223 127 239 223 127 247 223 127 127 
231 127 135 231 127 143 231 127 151 231 127 159 231 127 167 231 127 175 231 127 183 231 127 191 231 127 199 231 127 207 231 127 215 231 127 223 231 127 231 231 127 239 231 127 247 231 127 127 
239 127 135 239 127 143 239 127 151 239 127 159 239 127 167 239 127 175 239 127 183 239 127 191 239 127 199 239 127 207 239 127 215 239 127 223 239 127 231 239 127 239 239 127 247 239 127 127 
247 127 135 247 127 143 247 127 151 247 127 159 247 127 167 247 127 175 247 127 183 247 127 191 247 127 199 247 127 207 247 127 215 247 127 223 247 127 231 247 127 239 247 127 247 247 127 